# xmcd
#
# Track frame offsets:
# 150
# 20040
# 35253
# 49288
# 63642
# 79616
# 94752
# 110850
# 125622
# 139488
# 150708
# 164635
# 179515
# 193923
# 209906
# 225073
# 241287
# 254835
# 268273
# 282735
# 293127
# 305913
#
# Disc length: 4282 seconds
#
#
# Revision: 0
# Processed by: cddbd v1.5.2PL0 Copyright (c) Steve Scherf et al.
# Submitted via: FreeRIP 2.945 
#
DISCID=6a10b816
DTITLE=Fergus-J1998 - 1000White-Women12
DYEAR=1998
DGENRE=Native American
TTITLE0=1201
TTITLE1=1202
TTITLE2=1203
TTITLE3=1204
TTITLE4=1205
TTITLE5=1206
TTITLE6=1207
TTITLE7=1208
TTITLE8=1209
TTITLE9=1210
TTITLE10=1211
TTITLE11=1212
TTITLE12=1213
TTITLE13=1214
TTITLE14=1215
TTITLE15=1216
TTITLE16=1217
TTITLE17=1218
TTITLE18=1219
TTITLE19=1220
TTITLE20=1221
TTITLE21=1222
EXTD=One Thousand White Women\nby Jim Fergus - read by Laura Hicks\nFiction BBC Audio Books America
EXTT0=
EXTT1=
EXTT2=
EXTT3=
EXTT4=
EXTT5=
EXTT6=
EXTT7=
EXTT8=
EXTT9=
EXTT10=
EXTT11=
EXTT12=
EXTT13=
EXTT14=
EXTT15=
EXTT16=
EXTT17=
EXTT18=
EXTT19=
EXTT20=
EXTT21=
PLAYORDER=
